# Tiled2Unity generated file. Do not modify by hand.
# Wavefront file for '1_mesh_0014.obj'

# Vertices (Count = 256)
v -1056 -592 0
v -1072 -592 0
v -1072 -576 0
v -1056 -576 0
v -1040 -592 0
v -1056 -592 0
v -1056 -576 0
v -1040 -576 0
v -1024 -592 0
v -1040 -592 0
v -1040 -576 0
v -1024 -576 0
v -1008 -592 0
v -1024 -592 0
v -1024 -576 0
v -1008 -576 0
v -1056 -576 0
v -1072 -576 0
v -1072 -560 0
v -1056 -560 0
v -1040 -576 0
v -1056 -576 0
v -1056 -560 0
v -1040 -560 0
v -1024 -576 0
v -1040 -576 0
v -1040 -560 0
v -1024 -560 0
v -1008 -576 0
v -1024 -576 0
v -1024 -560 0
v -1008 -560 0
v -1056 -560 0
v -1072 -560 0
v -1072 -544 0
v -1056 -544 0
v -1040 -560 0
v -1056 -560 0
v -1056 -544 0
v -1040 -544 0
v -1024 -560 0
v -1040 -560 0
v -1040 -544 0
v -1024 -544 0
v -1008 -560 0
v -1024 -560 0
v -1024 -544 0
v -1008 -544 0
v -992 -560 0
v -1008 -560 0
v -1008 -544 0
v -992 -544 0
v -976 -560 0
v -992 -560 0
v -992 -544 0
v -976 -544 0
v -960 -560 0
v -976 -560 0
v -976 -544 0
v -960 -544 0
v -944 -560 0
v -960 -560 0
v -960 -544 0
v -944 -544 0
v -1056 -544 0
v -1072 -544 0
v -1072 -528 0
v -1056 -528 0
v -1040 -544 0
v -1056 -544 0
v -1056 -528 0
v -1040 -528 0
v -1024 -544 0
v -1040 -544 0
v -1040 -528 0
v -1024 -528 0
v -1008 -544 0
v -1024 -544 0
v -1024 -528 0
v -1008 -528 0
v -992 -544 0
v -1008 -544 0
v -1008 -528 0
v -992 -528 0
v -976 -544 0
v -992 -544 0
v -992 -528 0
v -976 -528 0
v -960 -544 0
v -976 -544 0
v -976 -528 0
v -960 -528 0
v -944 -544 0
v -960 -544 0
v -960 -528 0
v -944 -528 0
v -1056 -528 0
v -1072 -528 0
v -1072 -512 0
v -1056 -512 0
v -1040 -528 0
v -1056 -528 0
v -1056 -512 0
v -1040 -512 0
v -1024 -528 0
v -1040 -528 0
v -1040 -512 0
v -1024 -512 0
v -1008 -528 0
v -1024 -528 0
v -1024 -512 0
v -1008 -512 0
v -992 -528 0
v -1008 -528 0
v -1008 -512 0
v -992 -512 0
v -976 -528 0
v -992 -528 0
v -992 -512 0
v -976 -512 0
v -960 -528 0
v -976 -528 0
v -976 -512 0
v -960 -512 0
v -944 -528 0
v -960 -528 0
v -960 -512 0
v -944 -512 0
v -1056 -512 0
v -1072 -512 0
v -1072 -496 0
v -1056 -496 0
v -1040 -512 0
v -1056 -512 0
v -1056 -496 0
v -1040 -496 0
v -1024 -512 0
v -1040 -512 0
v -1040 -496 0
v -1024 -496 0
v -1008 -512 0
v -1024 -512 0
v -1024 -496 0
v -1008 -496 0
v -992 -512 0
v -1008 -512 0
v -1008 -496 0
v -992 -496 0
v -976 -512 0
v -992 -512 0
v -992 -496 0
v -976 -496 0
v -960 -512 0
v -976 -512 0
v -976 -496 0
v -960 -496 0
v -944 -512 0
v -960 -512 0
v -960 -496 0
v -944 -496 0
v -1056 -496 0
v -1072 -496 0
v -1072 -480 0
v -1056 -480 0
v -1040 -496 0
v -1056 -496 0
v -1056 -480 0
v -1040 -480 0
v -1024 -496 0
v -1040 -496 0
v -1040 -480 0
v -1024 -480 0
v -1008 -496 0
v -1024 -496 0
v -1024 -480 0
v -1008 -480 0
v -992 -496 0
v -1008 -496 0
v -1008 -480 0
v -992 -480 0
v -976 -496 0
v -992 -496 0
v -992 -480 0
v -976 -480 0
v -960 -496 0
v -976 -496 0
v -976 -480 0
v -960 -480 0
v -944 -496 0
v -960 -496 0
v -960 -480 0
v -944 -480 0
v -1056 -480 0
v -1072 -480 0
v -1072 -464 0
v -1056 -464 0
v -1040 -480 0
v -1056 -480 0
v -1056 -464 0
v -1040 -464 0
v -1024 -480 0
v -1040 -480 0
v -1040 -464 0
v -1024 -464 0
v -1008 -480 0
v -1024 -480 0
v -1024 -464 0
v -1008 -464 0
v -992 -480 0
v -1008 -480 0
v -1008 -464 0
v -992 -464 0
v -976 -480 0
v -992 -480 0
v -992 -464 0
v -976 -464 0
v -960 -480 0
v -976 -480 0
v -976 -464 0
v -960 -464 0
v -944 -480 0
v -960 -480 0
v -960 -464 0
v -944 -464 0
v -992 -464 0
v -1008 -464 0
v -1008 -448 0
v -992 -448 0
v -976 -464 0
v -992 -464 0
v -992 -448 0
v -976 -448 0
v -960 -464 0
v -976 -464 0
v -976 -448 0
v -960 -448 0
v -944 -464 0
v -960 -464 0
v -960 -448 0
v -944 -448 0
v -992 -448 0
v -1008 -448 0
v -1008 -432 0
v -992 -432 0
v -976 -448 0
v -992 -448 0
v -992 -432 0
v -976 -432 0
v -960 -448 0
v -976 -448 0
v -976 -432 0
v -960 -432 0
v -944 -448 0
v -960 -448 0
v -960 -432 0
v -944 -432 0

# Texture cooridinates (Count = 45)
vt 0.109375 0.484375
vt 0.125 0.484375
vt 0.125 0.5
vt 0.109375 0.5
vt 0.09375 0.484375
vt 0.09375 0.5
vt 0.078125 0.484375
vt 0.078125 0.5
vt 0.0625 0.484375
vt 0.0625 0.5
vt 0.125 0.515625
vt 0.109375 0.515625
vt 0.09375 0.515625
vt 0.078125 0.515625
vt 0.0625 0.515625
vt 0.125 0.53125
vt 0.109375 0.53125
vt 0.09375 0.53125
vt 0.078125 0.53125
vt 0.0625 0.53125
vt 0.125 0.546875
vt 0.109375 0.546875
vt 0.09375 0.546875
vt 0.078125 0.546875
vt 0.0625 0.546875
vt 0.125 0.5625
vt 0.109375 0.5625
vt 0.09375 0.5625
vt 0.078125 0.5625
vt 0.0625 0.5625
vt 0.125 0.578125
vt 0.109375 0.578125
vt 0.09375 0.578125
vt 0.078125 0.578125
vt 0.0625 0.578125
vt 0.125 0.59375
vt 0.109375 0.59375
vt 0.09375 0.59375
vt 0.078125 0.59375
vt 0.0625 0.59375
vt 0.125 0.609375
vt 0.109375 0.609375
vt 0.09375 0.609375
vt 0.078125 0.609375
vt 0.0625 0.609375

# Normal
vn 0 0 -1

# Mesh description
g 1_mesh_0014

# Faces
f 1/1/1 2/2/1 3/3/1 4/4/1
f 5/5/1 6/1/1 7/4/1 8/6/1
f 9/7/1 10/5/1 11/6/1 12/8/1
f 13/9/1 14/7/1 15/8/1 16/10/1
f 17/4/1 18/3/1 19/11/1 20/12/1
f 21/6/1 22/4/1 23/12/1 24/13/1
f 25/8/1 26/6/1 27/13/1 28/14/1
f 29/10/1 30/8/1 31/14/1 32/15/1
f 33/12/1 34/11/1 35/16/1 36/17/1
f 37/13/1 38/12/1 39/17/1 40/18/1
f 41/14/1 42/13/1 43/18/1 44/19/1
f 45/15/1 46/14/1 47/19/1 48/20/1
f 49/1/1 50/2/1 51/3/1 52/4/1
f 53/5/1 54/1/1 55/4/1 56/6/1
f 57/7/1 58/5/1 59/6/1 60/8/1
f 61/9/1 62/7/1 63/8/1 64/10/1
f 65/17/1 66/16/1 67/21/1 68/22/1
f 69/18/1 70/17/1 71/22/1 72/23/1
f 73/19/1 74/18/1 75/23/1 76/24/1
f 77/20/1 78/19/1 79/24/1 80/25/1
f 81/4/1 82/3/1 83/11/1 84/12/1
f 85/6/1 86/4/1 87/12/1 88/13/1
f 89/8/1 90/6/1 91/13/1 92/14/1
f 93/10/1 94/8/1 95/14/1 96/15/1
f 97/22/1 98/21/1 99/26/1 100/27/1
f 101/23/1 102/22/1 103/27/1 104/28/1
f 105/24/1 106/23/1 107/28/1 108/29/1
f 109/25/1 110/24/1 111/29/1 112/30/1
f 113/12/1 114/11/1 115/16/1 116/17/1
f 117/13/1 118/12/1 119/17/1 120/18/1
f 121/14/1 122/13/1 123/18/1 124/19/1
f 125/15/1 126/14/1 127/19/1 128/20/1
f 129/27/1 130/26/1 131/31/1 132/32/1
f 133/28/1 134/27/1 135/32/1 136/33/1
f 137/29/1 138/28/1 139/33/1 140/34/1
f 141/30/1 142/29/1 143/34/1 144/35/1
f 145/17/1 146/16/1 147/21/1 148/22/1
f 149/18/1 150/17/1 151/22/1 152/23/1
f 153/19/1 154/18/1 155/23/1 156/24/1
f 157/20/1 158/19/1 159/24/1 160/25/1
f 161/32/1 162/31/1 163/36/1 164/37/1
f 165/33/1 166/32/1 167/37/1 168/38/1
f 169/34/1 170/33/1 171/38/1 172/39/1
f 173/35/1 174/34/1 175/39/1 176/40/1
f 177/22/1 178/21/1 179/26/1 180/27/1
f 181/23/1 182/22/1 183/27/1 184/28/1
f 185/24/1 186/23/1 187/28/1 188/29/1
f 189/25/1 190/24/1 191/29/1 192/30/1
f 193/37/1 194/36/1 195/41/1 196/42/1
f 197/38/1 198/37/1 199/42/1 200/43/1
f 201/39/1 202/38/1 203/43/1 204/44/1
f 205/40/1 206/39/1 207/44/1 208/45/1
f 209/27/1 210/26/1 211/31/1 212/32/1
f 213/28/1 214/27/1 215/32/1 216/33/1
f 217/29/1 218/28/1 219/33/1 220/34/1
f 221/30/1 222/29/1 223/34/1 224/35/1
f 225/32/1 226/31/1 227/36/1 228/37/1
f 229/33/1 230/32/1 231/37/1 232/38/1
f 233/34/1 234/33/1 235/38/1 236/39/1
f 237/35/1 238/34/1 239/39/1 240/40/1
f 241/37/1 242/36/1 243/41/1 244/42/1
f 245/38/1 246/37/1 247/42/1 248/43/1
f 249/39/1 250/38/1 251/43/1 252/44/1
f 253/40/1 254/39/1 255/44/1 256/45/1

