# Tiled2Unity generated file. Do not modify by hand.
# Wavefront file for '1_mesh_0002.obj'

# Vertices (Count = 424)
v -1056 -992 0
v -1072 -992 0
v -1072 -976 0
v -1056 -976 0
v -1040 -992 0
v -1056 -992 0
v -1056 -976 0
v -1040 -976 0
v -1024 -992 0
v -1040 -992 0
v -1040 -976 0
v -1024 -976 0
v -1040 -976 0
v -1056 -976 0
v -1056 -960 0
v -1040 -960 0
v -1024 -976 0
v -1040 -976 0
v -1040 -960 0
v -1024 -960 0
v -1008 -976 0
v -1024 -976 0
v -1024 -960 0
v -1008 -960 0
v -992 -976 0
v -1008 -976 0
v -1008 -960 0
v -992 -960 0
v -976 -976 0
v -992 -976 0
v -992 -960 0
v -976 -960 0
v -960 -976 0
v -976 -976 0
v -976 -960 0
v -960 -960 0
v -992 -960 0
v -1008 -960 0
v -1008 -944 0
v -992 -944 0
v -976 -960 0
v -992 -960 0
v -992 -944 0
v -976 -944 0
v -960 -960 0
v -976 -960 0
v -976 -944 0
v -960 -944 0
v -944 -960 0
v -960 -960 0
v -960 -944 0
v -944 -944 0
v -928 -944 0
v -944 -944 0
v -944 -928 0
v -928 -928 0
v -880 -912 0
v -896 -912 0
v -896 -896 0
v -880 -896 0
v -864 -912 0
v -880 -912 0
v -880 -896 0
v -864 -896 0
v -848 -912 0
v -864 -912 0
v -864 -896 0
v -848 -896 0
v -832 -912 0
v -848 -912 0
v -848 -896 0
v -832 -896 0
v -816 -912 0
v -832 -912 0
v -832 -896 0
v -816 -896 0
v -800 -912 0
v -816 -912 0
v -816 -896 0
v -800 -896 0
v -784 -912 0
v -800 -912 0
v -800 -896 0
v -784 -896 0
v -880 -896 0
v -896 -896 0
v -896 -880 0
v -880 -880 0
v -864 -896 0
v -880 -896 0
v -880 -880 0
v -864 -880 0
v -848 -896 0
v -864 -896 0
v -864 -880 0
v -848 -880 0
v -832 -896 0
v -848 -896 0
v -848 -880 0
v -832 -880 0
v -816 -896 0
v -832 -896 0
v -832 -880 0
v -816 -880 0
v -800 -896 0
v -816 -896 0
v -816 -880 0
v -800 -880 0
v -784 -896 0
v -800 -896 0
v -800 -880 0
v -784 -880 0
v -864 -880 0
v -880 -880 0
v -880 -864 0
v -864 -864 0
v -848 -880 0
v -864 -880 0
v -864 -864 0
v -848 -864 0
v -832 -880 0
v -848 -880 0
v -848 -864 0
v -832 -864 0
v -816 -880 0
v -832 -880 0
v -832 -864 0
v -816 -864 0
v -800 -880 0
v -816 -880 0
v -816 -864 0
v -800 -864 0
v -784 -880 0
v -800 -880 0
v -800 -864 0
v -784 -864 0
v -688 -880 0
v -704 -880 0
v -704 -864 0
v -688 -864 0
v -672 -880 0
v -688 -880 0
v -688 -864 0
v -672 -864 0
v -656 -880 0
v -672 -880 0
v -672 -864 0
v -656 -864 0
v -800 -864 0
v -816 -864 0
v -816 -848 0
v -800 -848 0
v -784 -864 0
v -800 -864 0
v -800 -848 0
v -784 -848 0
v -1088 -640 0
v -1104 -640 0
v -1104 -624 0
v -1088 -624 0
v -1104 -624 0
v -1120 -624 0
v -1120 -608 0
v -1104 -608 0
v -1088 -624 0
v -1104 -624 0
v -1104 -608 0
v -1088 -608 0
v -1136 -608 0
v -1152 -608 0
v -1152 -592 0
v -1136 -592 0
v -1120 -608 0
v -1136 -608 0
v -1136 -592 0
v -1120 -592 0
v -1104 -608 0
v -1120 -608 0
v -1120 -592 0
v -1104 -592 0
v -1088 -608 0
v -1104 -608 0
v -1104 -592 0
v -1088 -592 0
v -1072 -608 0
v -1088 -608 0
v -1088 -592 0
v -1072 -592 0
v -928 -608 0
v -944 -608 0
v -944 -592 0
v -928 -592 0
v -912 -608 0
v -928 -608 0
v -928 -592 0
v -912 -592 0
v -896 -608 0
v -912 -608 0
v -912 -592 0
v -896 -592 0
v -880 -608 0
v -896 -608 0
v -896 -592 0
v -880 -592 0
v -1104 -592 0
v -1120 -592 0
v -1120 -576 0
v -1104 -576 0
v -1088 -592 0
v -1104 -592 0
v -1104 -576 0
v -1088 -576 0
v -1072 -592 0
v -1088 -592 0
v -1088 -576 0
v -1072 -576 0
v -1056 -592 0
v -1072 -592 0
v -1072 -576 0
v -1056 -576 0
v -1040 -592 0
v -1056 -592 0
v -1056 -576 0
v -1040 -576 0
v -1024 -592 0
v -1040 -592 0
v -1040 -576 0
v -1024 -576 0
v -1008 -592 0
v -1024 -592 0
v -1024 -576 0
v -1008 -576 0
v -992 -592 0
v -1008 -592 0
v -1008 -576 0
v -992 -576 0
v -976 -592 0
v -992 -592 0
v -992 -576 0
v -976 -576 0
v -960 -592 0
v -976 -592 0
v -976 -576 0
v -960 -576 0
v -944 -592 0
v -960 -592 0
v -960 -576 0
v -944 -576 0
v -928 -592 0
v -944 -592 0
v -944 -576 0
v -928 -576 0
v -912 -592 0
v -928 -592 0
v -928 -576 0
v -912 -576 0
v -896 -592 0
v -912 -592 0
v -912 -576 0
v -896 -576 0
v -880 -592 0
v -896 -592 0
v -896 -576 0
v -880 -576 0
v -368 -592 0
v -384 -592 0
v -384 -576 0
v -368 -576 0
v -1072 -576 0
v -1088 -576 0
v -1088 -560 0
v -1072 -560 0
v -1056 -576 0
v -1072 -576 0
v -1072 -560 0
v -1056 -560 0
v -1040 -576 0
v -1056 -576 0
v -1056 -560 0
v -1040 -560 0
v -1024 -576 0
v -1040 -576 0
v -1040 -560 0
v -1024 -560 0
v -1008 -576 0
v -1024 -576 0
v -1024 -560 0
v -1008 -560 0
v -992 -576 0
v -1008 -576 0
v -1008 -560 0
v -992 -560 0
v -976 -576 0
v -992 -576 0
v -992 -560 0
v -976 -560 0
v -960 -576 0
v -976 -576 0
v -976 -560 0
v -960 -560 0
v -944 -576 0
v -960 -576 0
v -960 -560 0
v -944 -560 0
v -928 -576 0
v -944 -576 0
v -944 -560 0
v -928 -560 0
v -912 -576 0
v -928 -576 0
v -928 -560 0
v -912 -560 0
v -896 -576 0
v -912 -576 0
v -912 -560 0
v -896 -560 0
v -880 -576 0
v -896 -576 0
v -896 -560 0
v -880 -560 0
v -368 -576 0
v -384 -576 0
v -384 -560 0
v -368 -560 0
v -1008 -560 0
v -1024 -560 0
v -1024 -544 0
v -1008 -544 0
v -992 -560 0
v -1008 -560 0
v -1008 -544 0
v -992 -544 0
v -976 -560 0
v -992 -560 0
v -992 -544 0
v -976 -544 0
v -960 -560 0
v -976 -560 0
v -976 -544 0
v -960 -544 0
v -944 -560 0
v -960 -560 0
v -960 -544 0
v -944 -544 0
v -928 -560 0
v -944 -560 0
v -944 -544 0
v -928 -544 0
v -912 -560 0
v -928 -560 0
v -928 -544 0
v -912 -544 0
v -896 -560 0
v -912 -560 0
v -912 -544 0
v -896 -544 0
v -880 -560 0
v -896 -560 0
v -896 -544 0
v -880 -544 0
v -368 -560 0
v -384 -560 0
v -384 -544 0
v -368 -544 0
v -976 -544 0
v -992 -544 0
v -992 -528 0
v -976 -528 0
v -960 -544 0
v -976 -544 0
v -976 -528 0
v -960 -528 0
v -944 -544 0
v -960 -544 0
v -960 -528 0
v -944 -528 0
v -928 -544 0
v -944 -544 0
v -944 -528 0
v -928 -528 0
v -912 -544 0
v -928 -544 0
v -928 -528 0
v -912 -528 0
v -896 -544 0
v -912 -544 0
v -912 -528 0
v -896 -528 0
v -880 -544 0
v -896 -544 0
v -896 -528 0
v -880 -528 0
v -368 -544 0
v -384 -544 0
v -384 -528 0
v -368 -528 0
v -976 -528 0
v -992 -528 0
v -992 -512 0
v -976 -512 0
v -960 -528 0
v -976 -528 0
v -976 -512 0
v -960 -512 0
v -944 -528 0
v -960 -528 0
v -960 -512 0
v -944 -512 0
v -928 -528 0
v -944 -528 0
v -944 -512 0
v -928 -512 0
v -912 -528 0
v -928 -528 0
v -928 -512 0
v -912 -512 0
v -896 -528 0
v -912 -528 0
v -912 -512 0
v -896 -512 0
v -880 -528 0
v -896 -528 0
v -896 -512 0
v -880 -512 0

# Texture cooridinates (Count = 10)
vt 0.15625 0.78125
vt 0.171875 0.78125
vt 0.171875 0.796875
vt 0.15625 0.796875
vt 0.171875 0.8125
vt 0.15625 0.8125
vt 0.171875 0.828125
vt 0.15625 0.828125
vt 0.171875 0.84375
vt 0.15625 0.84375

# Normal
vn 0 0 -1

# Mesh description
g 1_mesh_0002

# Faces
f 1/1/1 2/2/1 3/3/1 4/4/1
f 5/1/1 6/2/1 7/3/1 8/4/1
f 9/1/1 10/2/1 11/3/1 12/4/1
f 13/4/1 14/3/1 15/5/1 16/6/1
f 17/1/1 18/2/1 19/3/1 20/4/1
f 21/1/1 22/2/1 23/3/1 24/4/1
f 25/1/1 26/2/1 27/3/1 28/4/1
f 29/1/1 30/2/1 31/3/1 32/4/1
f 33/1/1 34/2/1 35/3/1 36/4/1
f 37/4/1 38/3/1 39/5/1 40/6/1
f 41/4/1 42/3/1 43/5/1 44/6/1
f 45/4/1 46/3/1 47/5/1 48/6/1
f 49/1/1 50/2/1 51/3/1 52/4/1
f 53/1/1 54/2/1 55/3/1 56/4/1
f 57/1/1 58/2/1 59/3/1 60/4/1
f 61/1/1 62/2/1 63/3/1 64/4/1
f 65/1/1 66/2/1 67/3/1 68/4/1
f 69/1/1 70/2/1 71/3/1 72/4/1
f 73/1/1 74/2/1 75/3/1 76/4/1
f 77/1/1 78/2/1 79/3/1 80/4/1
f 81/1/1 82/2/1 83/3/1 84/4/1
f 85/4/1 86/3/1 87/5/1 88/6/1
f 89/4/1 90/3/1 91/5/1 92/6/1
f 93/4/1 94/3/1 95/5/1 96/6/1
f 97/4/1 98/3/1 99/5/1 100/6/1
f 101/4/1 102/3/1 103/5/1 104/6/1
f 105/4/1 106/3/1 107/5/1 108/6/1
f 109/4/1 110/3/1 111/5/1 112/6/1
f 113/6/1 114/5/1 115/7/1 116/8/1
f 117/6/1 118/5/1 119/7/1 120/8/1
f 121/6/1 122/5/1 123/7/1 124/8/1
f 125/6/1 126/5/1 127/7/1 128/8/1
f 129/6/1 130/5/1 131/7/1 132/8/1
f 133/6/1 134/5/1 135/7/1 136/8/1
f 137/4/1 138/3/1 139/5/1 140/6/1
f 141/4/1 142/3/1 143/5/1 144/6/1
f 145/4/1 146/3/1 147/5/1 148/6/1
f 149/8/1 150/7/1 151/9/1 152/10/1
f 153/8/1 154/7/1 155/9/1 156/10/1
f 157/8/1 158/7/1 159/9/1 160/10/1
f 161/8/1 162/7/1 163/9/1 164/10/1
f 165/4/1 166/3/1 167/5/1 168/6/1
f 169/8/1 170/7/1 171/9/1 172/10/1
f 173/8/1 174/7/1 175/9/1 176/10/1
f 177/6/1 178/5/1 179/7/1 180/8/1
f 181/6/1 182/5/1 183/7/1 184/8/1
f 185/6/1 186/5/1 187/7/1 188/8/1
f 189/8/1 190/7/1 191/9/1 192/10/1
f 193/8/1 194/7/1 195/9/1 196/10/1
f 197/8/1 198/7/1 199/9/1 200/10/1
f 201/8/1 202/7/1 203/9/1 204/10/1
f 205/8/1 206/7/1 207/9/1 208/10/1
f 209/8/1 210/7/1 211/9/1 212/10/1
f 213/8/1 214/7/1 215/9/1 216/10/1
f 217/6/1 218/5/1 219/7/1 220/8/1
f 221/6/1 222/5/1 223/7/1 224/8/1
f 225/6/1 226/5/1 227/7/1 228/8/1
f 229/4/1 230/3/1 231/5/1 232/6/1
f 233/4/1 234/3/1 235/5/1 236/6/1
f 237/4/1 238/3/1 239/5/1 240/6/1
f 241/6/1 242/5/1 243/7/1 244/8/1
f 245/4/1 246/3/1 247/5/1 248/6/1
f 249/4/1 250/3/1 251/5/1 252/6/1
f 253/4/1 254/3/1 255/5/1 256/6/1
f 257/4/1 258/3/1 259/5/1 260/6/1
f 261/4/1 262/3/1 263/5/1 264/6/1
f 265/8/1 266/7/1 267/9/1 268/10/1
f 269/8/1 270/7/1 271/9/1 272/10/1
f 273/8/1 274/7/1 275/9/1 276/10/1
f 277/8/1 278/7/1 279/9/1 280/10/1
f 281/8/1 282/7/1 283/9/1 284/10/1
f 285/6/1 286/5/1 287/7/1 288/8/1
f 289/6/1 290/5/1 291/7/1 292/8/1
f 293/6/1 294/5/1 295/7/1 296/8/1
f 297/8/1 298/7/1 299/9/1 300/10/1
f 301/6/1 302/5/1 303/7/1 304/8/1
f 305/6/1 306/5/1 307/7/1 308/8/1
f 309/6/1 310/5/1 311/7/1 312/8/1
f 313/6/1 314/5/1 315/7/1 316/8/1
f 317/6/1 318/5/1 319/7/1 320/8/1
f 321/4/1 322/3/1 323/5/1 324/6/1
f 325/8/1 326/7/1 327/9/1 328/10/1
f 329/8/1 330/7/1 331/9/1 332/10/1
f 333/8/1 334/7/1 335/9/1 336/10/1
f 337/6/1 338/5/1 339/7/1 340/8/1
f 341/8/1 342/7/1 343/9/1 344/10/1
f 345/8/1 346/7/1 347/9/1 348/10/1
f 349/8/1 350/7/1 351/9/1 352/10/1
f 353/8/1 354/7/1 355/9/1 356/10/1
f 357/8/1 358/7/1 359/9/1 360/10/1
f 361/6/1 362/5/1 363/7/1 364/8/1
f 365/8/1 366/7/1 367/9/1 368/10/1
f 369/8/1 370/7/1 371/9/1 372/10/1
f 373/8/1 374/7/1 375/9/1 376/10/1
f 377/6/1 378/5/1 379/7/1 380/8/1
f 381/6/1 382/5/1 383/7/1 384/8/1
f 385/6/1 386/5/1 387/7/1 388/8/1
f 389/6/1 390/5/1 391/7/1 392/8/1
f 393/8/1 394/7/1 395/9/1 396/10/1
f 397/8/1 398/7/1 399/9/1 400/10/1
f 401/8/1 402/7/1 403/9/1 404/10/1
f 405/8/1 406/7/1 407/9/1 408/10/1
f 409/8/1 410/7/1 411/9/1 412/10/1
f 413/8/1 414/7/1 415/9/1 416/10/1
f 417/8/1 418/7/1 419/9/1 420/10/1
f 421/8/1 422/7/1 423/9/1 424/10/1

