# Tiled2Unity generated file. Do not modify by hand.
# Wavefront file for '1_mesh_0006.obj'

# Vertices (Count = 68)
v -1248 -1488 0
v -1264 -1488 0
v -1264 -1472 0
v -1248 -1472 0
v -1232 -1488 0
v -1248 -1488 0
v -1248 -1472 0
v -1232 -1472 0
v -1216 -1488 0
v -1232 -1488 0
v -1232 -1472 0
v -1216 -1472 0
v -1200 -1488 0
v -1216 -1488 0
v -1216 -1472 0
v -1200 -1472 0
v -1248 -1472 0
v -1264 -1472 0
v -1264 -1456 0
v -1248 -1456 0
v -1232 -1472 0
v -1248 -1472 0
v -1248 -1456 0
v -1232 -1456 0
v -1216 -1472 0
v -1232 -1472 0
v -1232 -1456 0
v -1216 -1456 0
v -1200 -1472 0
v -1216 -1472 0
v -1216 -1456 0
v -1200 -1456 0
v -336 -384 0
v -352 -384 0
v -352 -368 0
v -336 -368 0
v -288 -352 0
v -304 -352 0
v -304 -336 0
v -288 -336 0
v -432 -336 0
v -448 -336 0
v -448 -320 0
v -432 -320 0
v -400 -304 0
v -416 -304 0
v -416 -288 0
v -400 -288 0
v -384 -304 0
v -400 -304 0
v -400 -288 0
v -384 -288 0
v -464 -288 0
v -480 -288 0
v -480 -272 0
v -464 -272 0
v -448 -288 0
v -464 -288 0
v -464 -272 0
v -448 -272 0
v -432 -288 0
v -448 -288 0
v -448 -272 0
v -432 -272 0
v -416 -288 0
v -432 -288 0
v -432 -272 0
v -416 -272 0

# Texture cooridinates (Count = 29)
vt 0.234375 0.9375
vt 0.25 0.9375
vt 0.25 0.953125
vt 0.234375 0.953125
vt 0.21875 0.9375
vt 0.21875 0.953125
vt 0.203125 0.9375
vt 0.203125 0.953125
vt 0.1875 0.9375
vt 0.1875 0.953125
vt 0.25 0.96875
vt 0.234375 0.96875
vt 0.21875 0.96875
vt 0.203125 0.96875
vt 0.1875 0.96875
vt 0.109375 0.9375
vt 0.125 0.9375
vt 0.125 0.953125
vt 0.109375 0.953125
vt 0.0625 0.96875
vt 0.078125 0.96875
vt 0.078125 0.984375
vt 0.0625 0.984375
vt 0.09375 0.96875
vt 0.09375 0.984375
vt 0.109375 0.96875
vt 0.125 0.96875
vt 0.125 0.984375
vt 0.109375 0.984375

# Normal
vn 0 0 -1

# Mesh description
g 1_mesh_0006

# Faces
f 1/1/1 2/2/1 3/3/1 4/4/1
f 5/5/1 6/1/1 7/4/1 8/6/1
f 9/7/1 10/5/1 11/6/1 12/8/1
f 13/9/1 14/7/1 15/8/1 16/10/1
f 17/4/1 18/3/1 19/11/1 20/12/1
f 21/6/1 22/4/1 23/12/1 24/13/1
f 25/8/1 26/6/1 27/13/1 28/14/1
f 29/10/1 30/8/1 31/14/1 32/15/1
f 33/16/1 34/17/1 35/18/1 36/19/1
f 37/20/1 38/21/1 39/22/1 40/23/1
f 41/16/1 42/17/1 43/18/1 44/19/1
f 45/21/1 46/24/1 47/25/1 48/22/1
f 49/20/1 50/21/1 51/22/1 52/23/1
f 53/26/1 54/27/1 55/28/1 56/29/1
f 57/24/1 58/26/1 59/29/1 60/25/1
f 61/21/1 62/24/1 63/25/1 64/22/1
f 65/20/1 66/21/1 67/22/1 68/23/1

