# Tiled2Unity generated file. Do not modify by hand.
# Wavefront file for '2_mesh_0004.obj'

# Vertices (Count = 552)
v -432 -2816 0
v -448 -2816 0
v -448 -2800 0
v -432 -2800 0
v -480 -2800 0
v -496 -2800 0
v -496 -2784 0
v -480 -2784 0
v -464 -2800 0
v -480 -2800 0
v -480 -2784 0
v -464 -2784 0
v -448 -2800 0
v -464 -2800 0
v -464 -2784 0
v -448 -2784 0
v -432 -2800 0
v -448 -2800 0
v -448 -2784 0
v -432 -2784 0
v -512 -2784 0
v -528 -2784 0
v -528 -2768 0
v -512 -2768 0
v -496 -2784 0
v -512 -2784 0
v -512 -2768 0
v -496 -2768 0
v -480 -2784 0
v -496 -2784 0
v -496 -2768 0
v -480 -2768 0
v -464 -2784 0
v -480 -2784 0
v -480 -2768 0
v -464 -2768 0
v -448 -2784 0
v -464 -2784 0
v -464 -2768 0
v -448 -2768 0
v -432 -2784 0
v -448 -2784 0
v -448 -2768 0
v -432 -2768 0
v -544 -2768 0
v -560 -2768 0
v -560 -2752 0
v -544 -2752 0
v -528 -2768 0
v -544 -2768 0
v -544 -2752 0
v -528 -2752 0
v -512 -2768 0
v -528 -2768 0
v -528 -2752 0
v -512 -2752 0
v -496 -2768 0
v -512 -2768 0
v -512 -2752 0
v -496 -2752 0
v -480 -2768 0
v -496 -2768 0
v -496 -2752 0
v -480 -2752 0
v -464 -2768 0
v -480 -2768 0
v -480 -2752 0
v -464 -2752 0
v -448 -2768 0
v -464 -2768 0
v -464 -2752 0
v -448 -2752 0
v -432 -2768 0
v -448 -2768 0
v -448 -2752 0
v -432 -2752 0
v -3008 -2752 0
v -3024 -2752 0
v -3024 -2736 0
v -3008 -2736 0
v -608 -2752 0
v -624 -2752 0
v -624 -2736 0
v -608 -2736 0
v -592 -2752 0
v -608 -2752 0
v -608 -2736 0
v -592 -2736 0
v -576 -2752 0
v -592 -2752 0
v -592 -2736 0
v -576 -2736 0
v -560 -2752 0
v -576 -2752 0
v -576 -2736 0
v -560 -2736 0
v -544 -2752 0
v -560 -2752 0
v -560 -2736 0
v -544 -2736 0
v -528 -2752 0
v -544 -2752 0
v -544 -2736 0
v -528 -2736 0
v -512 -2752 0
v -528 -2752 0
v -528 -2736 0
v -512 -2736 0
v -496 -2752 0
v -512 -2752 0
v -512 -2736 0
v -496 -2736 0
v -480 -2752 0
v -496 -2752 0
v -496 -2736 0
v -480 -2736 0
v -464 -2752 0
v -480 -2752 0
v -480 -2736 0
v -464 -2736 0
v -448 -2752 0
v -464 -2752 0
v -464 -2736 0
v -448 -2736 0
v -432 -2752 0
v -448 -2752 0
v -448 -2736 0
v -432 -2736 0
v -3008 -2736 0
v -3024 -2736 0
v -3024 -2720 0
v -3008 -2720 0
v -2992 -2736 0
v -3008 -2736 0
v -3008 -2720 0
v -2992 -2720 0
v -608 -2736 0
v -624 -2736 0
v -624 -2720 0
v -608 -2720 0
v -592 -2736 0
v -608 -2736 0
v -608 -2720 0
v -592 -2720 0
v -576 -2736 0
v -592 -2736 0
v -592 -2720 0
v -576 -2720 0
v -560 -2736 0
v -576 -2736 0
v -576 -2720 0
v -560 -2720 0
v -544 -2736 0
v -560 -2736 0
v -560 -2720 0
v -544 -2720 0
v -528 -2736 0
v -544 -2736 0
v -544 -2720 0
v -528 -2720 0
v -512 -2736 0
v -528 -2736 0
v -528 -2720 0
v -512 -2720 0
v -496 -2736 0
v -512 -2736 0
v -512 -2720 0
v -496 -2720 0
v -480 -2736 0
v -496 -2736 0
v -496 -2720 0
v -480 -2720 0
v -464 -2736 0
v -480 -2736 0
v -480 -2720 0
v -464 -2720 0
v -448 -2736 0
v -464 -2736 0
v -464 -2720 0
v -448 -2720 0
v -432 -2736 0
v -448 -2736 0
v -448 -2720 0
v -432 -2720 0
v -2992 -2720 0
v -3008 -2720 0
v -3008 -2704 0
v -2992 -2704 0
v -656 -2720 0
v -672 -2720 0
v -672 -2704 0
v -656 -2704 0
v -640 -2720 0
v -656 -2720 0
v -656 -2704 0
v -640 -2704 0
v -624 -2720 0
v -640 -2720 0
v -640 -2704 0
v -624 -2704 0
v -608 -2720 0
v -624 -2720 0
v -624 -2704 0
v -608 -2704 0
v -592 -2720 0
v -608 -2720 0
v -608 -2704 0
v -592 -2704 0
v -576 -2720 0
v -592 -2720 0
v -592 -2704 0
v -576 -2704 0
v -560 -2720 0
v -576 -2720 0
v -576 -2704 0
v -560 -2704 0
v -544 -2720 0
v -560 -2720 0
v -560 -2704 0
v -544 -2704 0
v -528 -2720 0
v -544 -2720 0
v -544 -2704 0
v -528 -2704 0
v -512 -2720 0
v -528 -2720 0
v -528 -2704 0
v -512 -2704 0
v -496 -2720 0
v -512 -2720 0
v -512 -2704 0
v -496 -2704 0
v -480 -2720 0
v -496 -2720 0
v -496 -2704 0
v -480 -2704 0
v -464 -2720 0
v -480 -2720 0
v -480 -2704 0
v -464 -2704 0
v -448 -2720 0
v -464 -2720 0
v -464 -2704 0
v -448 -2704 0
v -432 -2720 0
v -448 -2720 0
v -448 -2704 0
v -432 -2704 0
v -2992 -2704 0
v -3008 -2704 0
v -3008 -2688 0
v -2992 -2688 0
v -656 -2704 0
v -672 -2704 0
v -672 -2688 0
v -656 -2688 0
v -640 -2704 0
v -656 -2704 0
v -656 -2688 0
v -640 -2688 0
v -624 -2704 0
v -640 -2704 0
v -640 -2688 0
v -624 -2688 0
v -608 -2704 0
v -624 -2704 0
v -624 -2688 0
v -608 -2688 0
v -592 -2704 0
v -608 -2704 0
v -608 -2688 0
v -592 -2688 0
v -576 -2704 0
v -592 -2704 0
v -592 -2688 0
v -576 -2688 0
v -560 -2704 0
v -576 -2704 0
v -576 -2688 0
v -560 -2688 0
v -544 -2704 0
v -560 -2704 0
v -560 -2688 0
v -544 -2688 0
v -528 -2704 0
v -544 -2704 0
v -544 -2688 0
v -528 -2688 0
v -512 -2704 0
v -528 -2704 0
v -528 -2688 0
v -512 -2688 0
v -496 -2704 0
v -512 -2704 0
v -512 -2688 0
v -496 -2688 0
v -480 -2704 0
v -496 -2704 0
v -496 -2688 0
v -480 -2688 0
v -464 -2704 0
v -480 -2704 0
v -480 -2688 0
v -464 -2688 0
v -448 -2704 0
v -464 -2704 0
v -464 -2688 0
v -448 -2688 0
v -432 -2704 0
v -448 -2704 0
v -448 -2688 0
v -432 -2688 0
v -2992 -2688 0
v -3008 -2688 0
v -3008 -2672 0
v -2992 -2672 0
v -656 -2688 0
v -672 -2688 0
v -672 -2672 0
v -656 -2672 0
v -640 -2688 0
v -656 -2688 0
v -656 -2672 0
v -640 -2672 0
v -624 -2688 0
v -640 -2688 0
v -640 -2672 0
v -624 -2672 0
v -608 -2688 0
v -624 -2688 0
v -624 -2672 0
v -608 -2672 0
v -592 -2688 0
v -608 -2688 0
v -608 -2672 0
v -592 -2672 0
v -576 -2688 0
v -592 -2688 0
v -592 -2672 0
v -576 -2672 0
v -560 -2688 0
v -576 -2688 0
v -576 -2672 0
v -560 -2672 0
v -544 -2688 0
v -560 -2688 0
v -560 -2672 0
v -544 -2672 0
v -528 -2688 0
v -544 -2688 0
v -544 -2672 0
v -528 -2672 0
v -512 -2688 0
v -528 -2688 0
v -528 -2672 0
v -512 -2672 0
v -496 -2688 0
v -512 -2688 0
v -512 -2672 0
v -496 -2672 0
v -480 -2688 0
v -496 -2688 0
v -496 -2672 0
v -480 -2672 0
v -464 -2688 0
v -480 -2688 0
v -480 -2672 0
v -464 -2672 0
v -448 -2688 0
v -464 -2688 0
v -464 -2672 0
v -448 -2672 0
v -432 -2688 0
v -448 -2688 0
v -448 -2672 0
v -432 -2672 0
v -656 -2672 0
v -672 -2672 0
v -672 -2656 0
v -656 -2656 0
v -640 -2672 0
v -656 -2672 0
v -656 -2656 0
v -640 -2656 0
v -624 -2672 0
v -640 -2672 0
v -640 -2656 0
v -624 -2656 0
v -608 -2672 0
v -624 -2672 0
v -624 -2656 0
v -608 -2656 0
v -592 -2672 0
v -608 -2672 0
v -608 -2656 0
v -592 -2656 0
v -576 -2672 0
v -592 -2672 0
v -592 -2656 0
v -576 -2656 0
v -560 -2672 0
v -576 -2672 0
v -576 -2656 0
v -560 -2656 0
v -544 -2672 0
v -560 -2672 0
v -560 -2656 0
v -544 -2656 0
v -528 -2672 0
v -544 -2672 0
v -544 -2656 0
v -528 -2656 0
v -512 -2672 0
v -528 -2672 0
v -528 -2656 0
v -512 -2656 0
v -496 -2672 0
v -512 -2672 0
v -512 -2656 0
v -496 -2656 0
v -480 -2672 0
v -496 -2672 0
v -496 -2656 0
v -480 -2656 0
v -464 -2672 0
v -480 -2672 0
v -480 -2656 0
v -464 -2656 0
v -448 -2672 0
v -464 -2672 0
v -464 -2656 0
v -448 -2656 0
v -432 -2672 0
v -448 -2672 0
v -448 -2656 0
v -432 -2656 0
v -656 -2656 0
v -672 -2656 0
v -672 -2640 0
v -656 -2640 0
v -640 -2656 0
v -656 -2656 0
v -656 -2640 0
v -640 -2640 0
v -624 -2656 0
v -640 -2656 0
v -640 -2640 0
v -624 -2640 0
v -608 -2656 0
v -624 -2656 0
v -624 -2640 0
v -608 -2640 0
v -592 -2656 0
v -608 -2656 0
v -608 -2640 0
v -592 -2640 0
v -576 -2656 0
v -592 -2656 0
v -592 -2640 0
v -576 -2640 0
v -560 -2656 0
v -576 -2656 0
v -576 -2640 0
v -560 -2640 0
v -544 -2656 0
v -560 -2656 0
v -560 -2640 0
v -544 -2640 0
v -528 -2656 0
v -544 -2656 0
v -544 -2640 0
v -528 -2640 0
v -512 -2656 0
v -528 -2656 0
v -528 -2640 0
v -512 -2640 0
v -496 -2656 0
v -512 -2656 0
v -512 -2640 0
v -496 -2640 0
v -480 -2656 0
v -496 -2656 0
v -496 -2640 0
v -480 -2640 0
v -464 -2656 0
v -480 -2656 0
v -480 -2640 0
v -464 -2640 0
v -448 -2656 0
v -464 -2656 0
v -464 -2640 0
v -448 -2640 0
v -432 -2656 0
v -448 -2656 0
v -448 -2640 0
v -432 -2640 0
v -640 -2640 0
v -656 -2640 0
v -656 -2624 0
v -640 -2624 0
v -624 -2640 0
v -640 -2640 0
v -640 -2624 0
v -624 -2624 0
v -608 -2640 0
v -624 -2640 0
v -624 -2624 0
v -608 -2624 0
v -592 -2640 0
v -608 -2640 0
v -608 -2624 0
v -592 -2624 0
v -576 -2640 0
v -592 -2640 0
v -592 -2624 0
v -576 -2624 0
v -560 -2640 0
v -576 -2640 0
v -576 -2624 0
v -560 -2624 0
v -544 -2640 0
v -560 -2640 0
v -560 -2624 0
v -544 -2624 0
v -528 -2640 0
v -544 -2640 0
v -544 -2624 0
v -528 -2624 0
v -512 -2640 0
v -528 -2640 0
v -528 -2624 0
v -512 -2624 0
v -496 -2640 0
v -512 -2640 0
v -512 -2624 0
v -496 -2624 0
v -480 -2640 0
v -496 -2640 0
v -496 -2624 0
v -480 -2624 0
v -464 -2640 0
v -480 -2640 0
v -480 -2624 0
v -464 -2624 0
v -448 -2640 0
v -464 -2640 0
v -464 -2624 0
v -448 -2624 0
v -432 -2640 0
v -448 -2640 0
v -448 -2624 0
v -432 -2624 0

# Texture cooridinates (Count = 14)
vt 0.40625 0.78125
vt 0.421875 0.78125
vt 0.421875 0.796875
vt 0.40625 0.796875
vt 0.421875 0.8125
vt 0.40625 0.8125
vt 0.421875 0.828125
vt 0.40625 0.828125
vt 0.65625 0.5625
vt 0.671875 0.5625
vt 0.671875 0.578125
vt 0.65625 0.578125
vt 0.421875 0.84375
vt 0.40625 0.84375

# Normal
vn 0 0 -1

# Mesh description
g 2_mesh_0004

# Faces
f 1/1/1 2/2/1 3/3/1 4/4/1
f 5/1/1 6/2/1 7/3/1 8/4/1
f 9/4/1 10/3/1 11/5/1 12/6/1
f 13/1/1 14/2/1 15/3/1 16/4/1
f 17/1/1 18/2/1 19/3/1 20/4/1
f 21/1/1 22/2/1 23/3/1 24/4/1
f 25/1/1 26/2/1 27/3/1 28/4/1
f 29/4/1 30/3/1 31/5/1 32/6/1
f 33/4/1 34/3/1 35/5/1 36/6/1
f 37/4/1 38/3/1 39/5/1 40/6/1
f 41/4/1 42/3/1 43/5/1 44/6/1
f 45/1/1 46/2/1 47/3/1 48/4/1
f 49/1/1 50/2/1 51/3/1 52/4/1
f 53/4/1 54/3/1 55/5/1 56/6/1
f 57/4/1 58/3/1 59/5/1 60/6/1
f 61/4/1 62/3/1 63/5/1 64/6/1
f 65/6/1 66/5/1 67/7/1 68/8/1
f 69/6/1 70/5/1 71/7/1 72/8/1
f 73/6/1 74/5/1 75/7/1 76/8/1
f 77/9/1 78/10/1 79/11/1 80/12/1
f 81/1/1 82/2/1 83/3/1 84/4/1
f 85/1/1 86/2/1 87/3/1 88/4/1
f 89/1/1 90/2/1 91/3/1 92/4/1
f 93/4/1 94/3/1 95/5/1 96/6/1
f 97/4/1 98/3/1 99/5/1 100/6/1
f 101/4/1 102/3/1 103/5/1 104/6/1
f 105/4/1 106/3/1 107/5/1 108/6/1
f 109/4/1 110/3/1 111/5/1 112/6/1
f 113/4/1 114/3/1 115/5/1 116/6/1
f 117/4/1 118/3/1 119/5/1 120/6/1
f 121/4/1 122/3/1 123/5/1 124/6/1
f 125/6/1 126/5/1 127/7/1 128/8/1
f 129/9/1 130/10/1 131/11/1 132/12/1
f 133/9/1 134/10/1 135/11/1 136/12/1
f 137/4/1 138/3/1 139/5/1 140/6/1
f 141/4/1 142/3/1 143/5/1 144/6/1
f 145/4/1 146/3/1 147/5/1 148/6/1
f 149/6/1 150/5/1 151/7/1 152/8/1
f 153/6/1 154/5/1 155/7/1 156/8/1
f 157/6/1 158/5/1 159/7/1 160/8/1
f 161/4/1 162/3/1 163/5/1 164/6/1
f 165/4/1 166/3/1 167/5/1 168/6/1
f 169/4/1 170/3/1 171/5/1 172/6/1
f 173/6/1 174/5/1 175/7/1 176/8/1
f 177/6/1 178/5/1 179/7/1 180/8/1
f 181/4/1 182/3/1 183/5/1 184/6/1
f 185/9/1 186/10/1 187/11/1 188/12/1
f 189/1/1 190/2/1 191/3/1 192/4/1
f 193/1/1 194/2/1 195/3/1 196/4/1
f 197/1/1 198/2/1 199/3/1 200/4/1
f 201/6/1 202/5/1 203/7/1 204/8/1
f 205/6/1 206/5/1 207/7/1 208/8/1
f 209/6/1 210/5/1 211/7/1 212/8/1
f 213/6/1 214/5/1 215/7/1 216/8/1
f 217/4/1 218/3/1 219/5/1 220/6/1
f 221/4/1 222/3/1 223/5/1 224/6/1
f 225/6/1 226/5/1 227/7/1 228/8/1
f 229/6/1 230/5/1 231/7/1 232/8/1
f 233/6/1 234/5/1 235/7/1 236/8/1
f 237/4/1 238/3/1 239/5/1 240/6/1
f 241/6/1 242/5/1 243/7/1 244/8/1
f 245/6/1 246/5/1 247/7/1 248/8/1
f 249/9/1 250/10/1 251/11/1 252/12/1
f 253/4/1 254/3/1 255/5/1 256/6/1
f 257/4/1 258/3/1 259/5/1 260/6/1
f 261/4/1 262/3/1 263/5/1 264/6/1
f 265/8/1 266/7/1 267/13/1 268/14/1
f 269/8/1 270/7/1 271/13/1 272/14/1
f 273/8/1 274/7/1 275/13/1 276/14/1
f 277/4/1 278/3/1 279/5/1 280/6/1
f 281/6/1 282/5/1 283/7/1 284/8/1
f 285/6/1 286/5/1 287/7/1 288/8/1
f 289/6/1 290/5/1 291/7/1 292/8/1
f 293/6/1 294/5/1 295/7/1 296/8/1
f 297/6/1 298/5/1 299/7/1 300/8/1
f 301/6/1 302/5/1 303/7/1 304/8/1
f 305/8/1 306/7/1 307/13/1 308/14/1
f 309/8/1 310/7/1 311/13/1 312/14/1
f 313/9/1 314/10/1 315/11/1 316/12/1
f 317/6/1 318/5/1 319/7/1 320/8/1
f 321/6/1 322/5/1 323/7/1 324/8/1
f 325/6/1 326/5/1 327/7/1 328/8/1
f 329/8/1 330/7/1 331/13/1 332/14/1
f 333/8/1 334/7/1 335/13/1 336/14/1
f 337/8/1 338/7/1 339/13/1 340/14/1
f 341/6/1 342/5/1 343/7/1 344/8/1
f 345/6/1 346/5/1 347/7/1 348/8/1
f 349/6/1 350/5/1 351/7/1 352/8/1
f 353/8/1 354/7/1 355/13/1 356/14/1
f 357/8/1 358/7/1 359/13/1 360/14/1
f 361/8/1 362/7/1 363/13/1 364/14/1
f 365/8/1 366/7/1 367/13/1 368/14/1
f 369/8/1 370/7/1 371/13/1 372/14/1
f 373/8/1 374/7/1 375/13/1 376/14/1
f 377/4/1 378/3/1 379/5/1 380/6/1
f 381/4/1 382/3/1 383/5/1 384/6/1
f 385/4/1 386/3/1 387/5/1 388/6/1
f 389/4/1 390/3/1 391/5/1 392/6/1
f 393/8/1 394/7/1 395/13/1 396/14/1
f 397/8/1 398/7/1 399/13/1 400/14/1
f 401/4/1 402/3/1 403/5/1 404/6/1
f 405/4/1 406/3/1 407/5/1 408/6/1
f 409/4/1 410/3/1 411/5/1 412/6/1
f 413/4/1 414/3/1 415/5/1 416/6/1
f 417/4/1 418/3/1 419/5/1 420/6/1
f 421/4/1 422/3/1 423/5/1 424/6/1
f 425/4/1 426/3/1 427/5/1 428/6/1
f 429/4/1 430/3/1 431/5/1 432/6/1
f 433/4/1 434/3/1 435/5/1 436/6/1
f 437/6/1 438/5/1 439/7/1 440/8/1
f 441/4/1 442/3/1 443/5/1 444/6/1
f 445/4/1 446/3/1 447/5/1 448/6/1
f 449/4/1 450/3/1 451/5/1 452/6/1
f 453/4/1 454/3/1 455/5/1 456/6/1
f 457/4/1 458/3/1 459/5/1 460/6/1
f 461/6/1 462/5/1 463/7/1 464/8/1
f 465/6/1 466/5/1 467/7/1 468/8/1
f 469/6/1 470/5/1 471/7/1 472/8/1
f 473/6/1 474/5/1 475/7/1 476/8/1
f 477/6/1 478/5/1 479/7/1 480/8/1
f 481/6/1 482/5/1 483/7/1 484/8/1
f 485/6/1 486/5/1 487/7/1 488/8/1
f 489/6/1 490/5/1 491/7/1 492/8/1
f 493/4/1 494/3/1 495/5/1 496/6/1
f 497/6/1 498/5/1 499/7/1 500/8/1
f 501/6/1 502/5/1 503/7/1 504/8/1
f 505/6/1 506/5/1 507/7/1 508/8/1
f 509/6/1 510/5/1 511/7/1 512/8/1
f 513/6/1 514/5/1 515/7/1 516/8/1
f 517/6/1 518/5/1 519/7/1 520/8/1
f 521/6/1 522/5/1 523/7/1 524/8/1
f 525/6/1 526/5/1 527/7/1 528/8/1
f 529/6/1 530/5/1 531/7/1 532/8/1
f 533/6/1 534/5/1 535/7/1 536/8/1
f 537/6/1 538/5/1 539/7/1 540/8/1
f 541/6/1 542/5/1 543/7/1 544/8/1
f 545/6/1 546/5/1 547/7/1 548/8/1
f 549/6/1 550/5/1 551/7/1 552/8/1

